<?xml version="1.0" encoding="utf-8"?>
<svg width="572px" height="703px" viewBox="0 0 572 703" version="1.1" xmlns:xlink="http://www.w3.org/1999/xlink" xmlns="http://www.w3.org/2000/svg">
  <defs>
    <linearGradient gradientUnits="userSpaceOnUse" x1="0" y1="0" x2="495.19995" y2="597.39996" id="gradient_1">
      <stop offset="0%" stop-color="#F7F5FB" />
      <stop offset="100%" stop-color="#D3D3D3" />
    </linearGradient>
    <filter filterUnits="userSpaceOnUse" color-interpolation-filters="sRGB" id="filter_1">
      <feFlood flood-opacity="0" result="BackgroundImageFix" />
      <feColorMatrix in="SourceAlpha" type="matrix" values="0 0 0 0 0 0 0 0 0 0 0 0 0 0 0 0 0 0 127 0" />
      <feMorphology radius="10" operator="dilate" in="SourceAlpha" result="effect0_dropShadow" />
      <feOffset dx="2" dy="10" />
      <feGaussianBlur stdDeviation="2" />
      <feColorMatrix type="matrix" values="0 0 0 0 0.39215687 0 0 0 0 0.39215687 0 0 0 0 0.39215687 0 0 0 0.49803922 0" />
      <feBlend mode="normal" in2="BackgroundImageFix" result="effect0_dropShadow" />
      <feBlend mode="normal" in="SourceGraphic" in2="effect0_dropShadow" result="shape" />
    </filter>
  </defs>
  <path d="M21.999 6L546.001 6Q546.197 6 546.393 6.00963Q546.59 6.01927 546.785 6.03852Q546.98 6.05777 547.175 6.08658Q547.369 6.11539 547.562 6.1537Q547.754 6.19201 547.945 6.23972Q548.135 6.28743 548.323 6.34444Q548.511 6.40144 548.696 6.46759Q548.881 6.53374 549.062 6.60889Q549.243 6.68403 549.421 6.76799Q549.599 6.85195 549.772 6.94451Q549.945 7.03708 550.113 7.13803Q550.282 7.23898 550.445 7.34808Q550.608 7.45717 550.766 7.57415Q550.924 7.69112 551.076 7.81569Q551.227 7.94027 551.373 8.07214Q551.518 8.20401 551.657 8.34286Q551.796 8.48171 551.928 8.62721Q552.06 8.7727 552.184 8.9245Q552.309 9.07629 552.426 9.23401Q552.543 9.39173 552.652 9.555Q552.761 9.71827 552.862 9.8867Q552.963 10.0551 553.055 10.2283Q553.148 10.4015 553.232 10.579Q553.316 10.7565 553.391 10.9379Q553.466 11.1193 553.532 11.3042Q553.599 11.4891 553.656 11.677Q553.713 11.8649 553.76 12.0554Q553.808 12.2459 553.846 12.4385Q553.885 12.6311 553.913 12.8253Q553.942 13.0196 553.961 13.215Q553.981 13.4104 553.99 13.6065Q554 13.8027 554 13.999L554 586.001C554 590.419 550.866 595.734 546.956 597.789C516.035 614.038 388.632 677 271.052 677C154.737 677 48.0344 615.386 20.7253 598.33C16.9783 595.99 14 590.419 14 586.001L14 13.999Q14 13.8027 14.0096 13.6065Q14.0193 13.4104 14.0385 13.215Q14.0578 13.0196 14.0866 12.8253Q14.1154 12.6311 14.1537 12.4385Q14.192 12.2459 14.2397 12.0554Q14.2874 11.8649 14.3444 11.677Q14.4014 11.4891 14.4676 11.3042Q14.5337 11.1193 14.6089 10.9379Q14.684 10.7565 14.768 10.579Q14.8519 10.4015 14.9445 10.2283Q15.0371 10.0551 15.138 9.8867Q15.239 9.71827 15.3481 9.555Q15.4572 9.39173 15.5741 9.23401Q15.6911 9.07629 15.8157 8.9245Q15.9403 8.7727 16.0721 8.62721Q16.204 8.48171 16.3428 8.34286Q16.4817 8.20401 16.6272 8.07214Q16.7727 7.94027 16.9245 7.81569Q17.0763 7.69112 17.234 7.57415Q17.3917 7.45717 17.555 7.34808Q17.7183 7.23898 17.8867 7.13803Q18.0551 7.03708 18.2283 6.94451Q18.4015 6.85195 18.579 6.76799Q18.7565 6.68403 18.9379 6.60889Q19.1193 6.53374 19.3042 6.46759Q19.4891 6.40144 19.677 6.34444Q19.8649 6.28743 20.0554 6.23972Q20.2459 6.19201 20.4385 6.1537Q20.6311 6.11539 20.8253 6.08658Q21.0195 6.05776 21.215 6.03852Q21.4104 6.01927 21.6065 6.00963Q21.8026 6 21.999 6Z" id="Rectangle-3" fill="url(#gradient_1)" fill-rule="evenodd" stroke="none" filter="url(#filter_1)" />
</svg>