<?xml version="1.0" encoding="utf-8"?>
<svg width="480px" height="480px" viewBox="0 0 480 480" version="1.1" xmlns:xlink="http://www.w3.org/1999/xlink" xmlns="http://www.w3.org/2000/svg">
  <defs>
    <path d="M0 0L480 0L480 480L0 480L0 0Z" id="path_1" />
    <clipPath id="mask_1">
      <use xlink:href="#path_1" />
    </clipPath>
  </defs>
  <g id="icons8-close">
    <path d="M0 0L480 0L480 480L0 480L0 0Z" id="Background" fill="#FFFFFF" fill-opacity="0" fill-rule="evenodd" stroke="none" />
    <g clip-path="url(#mask_1)">
      <path d="M411.312 100.688C408.192 97.568 382.432 71.808 379.312 68.688C373.056 62.432 362.928 62.432 356.688 68.688C353.568 71.808 71.808 353.568 68.688 356.688C62.432 362.944 62.432 373.072 68.688 379.312C73.152 383.776 96.224 406.848 100.688 411.312C106.944 417.568 117.072 417.568 123.312 411.312C126.432 408.192 408.192 126.432 411.312 123.312C417.568 117.072 417.568 106.928 411.312 100.688L411.312 100.688Z" id="Shape" fill="#F3F9F0" stroke="none" />
      <path d="M379.312 411.312C382.432 408.192 408.192 382.432 411.312 379.312C417.568 373.056 417.568 362.928 411.312 356.688C408.192 353.568 126.432 71.808 123.312 68.688C117.056 62.432 106.928 62.432 100.688 68.688C96.224 73.152 73.152 96.224 68.688 100.688C62.432 106.944 62.432 117.072 68.688 123.312C71.808 126.432 353.568 408.192 356.688 411.312C362.928 417.568 373.072 417.568 379.312 411.312L379.312 411.312Z" id="Shape" fill="#F3F9F0" stroke="none" />
    </g>
  </g>
</svg>