<?xml version="1.0" encoding="utf-8"?>
<svg width="960px" height="671.99994px" viewBox="0 0 960 671.99994" version="1.1" xmlns:xlink="http://www.w3.org/1999/xlink" xmlns="http://www.w3.org/2000/svg">
  <defs>
    <path d="M0 0L960 0L960 672L0 672L0 0Z" id="path_1" />
    <clipPath id="mask_1">
      <use xlink:href="#path_1" />
    </clipPath>
  </defs>
  <g id="studyart">
    <path d="M0 0L960 0L960 672L0 672L0 0Z" id="Background" fill="#FFFFFF" fill-opacity="0" fill-rule="evenodd" stroke="none" />
    <g clip-path="url(#mask_1)">
      <g id="LAMP" transform="translate(209.68304 62.20807)">
        <path d="M488.64 546.624L0 546.624L199.68 72.4992L288.96 72.4992L488.64 546.624Z" id="Polygon" fill="#D0F0E4" fill-rule="evenodd" stroke="none" />
        <path d="M39086.6 4305.17L39833.4 3931.77L40580.2 4305.17" id="Polygon" fill="none" fill-rule="evenodd" stroke="#FFCF2D" stroke-width="6" />
        <path d="M244.32 28.3584L244.32 0" id="Line" fill="none" fill-rule="evenodd" stroke="#FFCF2D" stroke-width="6" />
        <path d="M230.688 73.6512C230.688 66.1224 236.791 60.0192 244.32 60.0192C251.849 60.0192 257.952 66.1224 257.952 73.6512C257.952 81.1799 251.849 87.2832 244.32 87.2832C236.791 87.2832 230.688 81.1799 230.688 73.6512Z" id="Circle" fill="#FFCF2D" fill-rule="evenodd" stroke="#FFFFFF" stroke-width="6" />
        <path d="M288.96 72.4992L199.699 72.4992L200.89 67.0656C204.806 49.1712 223.066 36.192 244.339 36.192C254.976 36.192 264.864 39.4368 272.563 44.9088C280.282 50.3808 285.811 58.0992 287.77 67.0464L288.96 72.4992L288.96 72.4992Z" id="Shape" fill="none" fill-rule="evenodd" stroke="#9A3B82" stroke-width="6" stroke-linecap="round" />
      </g>
      <g id="BOOKSHELF" transform="translate(566.0735 192.28812)">
        <g id="Group" transform="translate(0 238.61757)">
          <path d="M16.435 9.58072L25.4974 9.58072L25.4974 66.7967L16.435 66.7967L16.435 9.58072Z" id="Rectangle" fill="#66B0F0" fill-rule="evenodd" stroke="none" />
          <path d="M190.061 66.7968L138.471 66.7968C136.608 66.7968 135.168 65.184 135.399 63.3408L142.579 2.72639C142.771 1.17117 144.096 0 145.651 0L197.242 0C199.104 0 200.544 1.61278 200.314 3.456L193.133 64.0704C192.941 65.6256 191.616 66.7968 190.061 66.7968L190.061 66.7968Z" id="Shape" fill="#9A3B82" fill-rule="evenodd" stroke="none" />
          <path d="M161.952 66.7968L121.21 66.7968C118.714 66.7968 116.774 64.608 117.062 62.1312L122.285 17.9904C122.534 15.8976 124.32 14.304 126.432 14.304L168.154 14.304L161.952 66.7968L161.952 66.7968Z" id="Shape" fill="#FFFFFF" fill-rule="evenodd" stroke="#FFCF2D" stroke-width="6" />
          <path d="M166.521 66.7968L127.641 66.7968C125.145 66.7968 123.206 64.608 123.494 62.1312L128.717 17.9904C128.966 15.8976 130.752 14.304 132.864 14.304L172.243 14.304C173.491 14.304 174.47 15.3984 174.317 16.6464L168.595 64.9344C168.48 66.0096 167.577 66.7968 166.521 66.7968L166.521 66.7968Z" id="Shape" fill="#FFFFFF" fill-rule="evenodd" stroke="#FFCF2D" stroke-width="6" />
          <path d="M26.0737 18.1824L41.7985 18.1824L41.7985 66.7968L26.0737 66.7968L26.0737 18.1824Z" id="Rectangle" fill="none" fill-rule="evenodd" stroke="#9A3B82" stroke-width="6" stroke-linecap="round" />
          <path d="M36.3265 18.1824L58.4641 18.1824L58.4641 66.7968L36.3265 66.7968L36.3265 18.1824Z" id="Rectangle" fill="none" fill-rule="evenodd" stroke="#9A3B82" stroke-width="6" stroke-linecap="round" />
          <path d="M85.2864 66.797L79.1617 66.797L56.3712 12.8449L62.4961 12.8449L85.2864 66.797Z" id="Polygon" fill="none" fill-rule="evenodd" stroke="#9A3B82" stroke-width="6" stroke-linecap="round" />
          <path d="M96.96 66.7966L85.5552 66.7966L65.9328 21.043L77.3376 21.043L96.96 66.7966Z" id="Polygon" fill="none" fill-rule="evenodd" stroke="#9A3B82" stroke-width="6" stroke-linecap="round" />
          <path d="M0 18.1824L15.8592 18.1824L15.8592 66.7968L0 66.7968L0 18.1824Z" id="Rectangle" fill="none" fill-rule="evenodd" stroke="#9A3B82" stroke-width="6" stroke-linecap="round" />
        </g>
        <g id="Group" transform="translate(0 166.21437)">
          <g id="Group" transform="translate(0 26.764896)">
            <path d="M0 26.5536L73.7664 26.5536L73.7664 36.0384L0 36.0384L0 26.5536Z" id="Rectangle" fill="none" fill-rule="evenodd" stroke="#9A3B82" stroke-width="6" stroke-linecap="round" />
            <path d="M0 19.296L93.4464 19.296L93.4464 26.9376L0 26.9376L0 19.296Z" id="Rectangle" fill="#FE5244" fill-rule="evenodd" stroke="none" />
            <path d="M0 8.27527L63.072 8.27527L63.072 19.1041L0 19.1041L0 8.27527Z" id="Rectangle" fill="#FFCF2D" fill-rule="evenodd" stroke="none" />
            <path d="M0 0L73.7664 0L73.7664 8.0832L0 8.0832L0 0Z" id="Rectangle" fill="none" fill-rule="evenodd" stroke="#9A3B82" stroke-width="6" stroke-linecap="round" />
          </g>
          <g id="Group" transform="translate(111.39845 0)">
            <path d="M89.6448 5.45283L89.5872 5.77922L80.8704 62.8032L0 62.8032L8.71678 5.7792L8.832 4.97281C10.2144 2.16961 18.6624 0 28.896 0C40.0896 0 49.152 2.592 49.152 5.7792C49.152 2.592 58.2144 0 69.408 0C80.2176 0.0192422 89.0304 2.41924 89.6448 5.45283L89.6448 5.45283Z" id="Shape" fill="#FFFFFF" fill-rule="evenodd" stroke="#FFCF2D" stroke-width="6" />
            <path d="M40.5313 62.8223L49.1713 5.79831" id="Line" fill="none" fill-rule="evenodd" stroke="#FFCF2D" stroke-width="6" />
            <path d="M40.5312 62.8224C40.5312 59.6352 31.4688 57.0432 20.2752 57.0432C9.08161 57.0432 0.0192261 59.6352 0.0192261 62.8224L40.5312 62.8224L40.5312 62.8224Z" id="Shape" fill="#FFCF2D" fill-rule="evenodd" stroke="none" />
            <path d="M81.0433 62.8224C81.0433 59.6352 71.9809 57.0432 60.7873 57.0432C49.5937 57.0432 40.5313 59.6352 40.5313 62.8224L81.0433 62.8224L81.0433 62.8224Z" id="Shape" fill="#FFCF2D" fill-rule="evenodd" stroke="none" />
            <path d="M40.8382 61.6128C40.723 58.4256 49.6894 55.5265 60.883 55.1232C67.8717 54.8736 74.7646 55.8528 78.3933 57.2545L87.0333 2.93765" id="Shape" fill="none" fill-rule="evenodd" stroke="#FFCF2D" stroke-width="6" stroke-linecap="round" />
          </g>
        </g>
        <g id="Group" transform="translate(0.2493897 93.3312)">
          <path d="M194.342 59.3088L121.728 59.3088L121.728 43.1424C121.728 41.5488 123.014 40.2624 124.608 40.2624L191.481 40.2624C193.075 40.2624 194.361 41.5488 194.361 43.1424L194.361 59.3088L194.342 59.3088Z" id="Shape" fill="#FFFFFF" fill-rule="evenodd" stroke="#9A3B82" stroke-width="6" stroke-linecap="round" />
          <path d="M200.141 39.4944L137.568 39.4944C136.589 39.4944 135.821 38.7072 135.821 37.7472L135.821 31.3152C135.821 30.336 136.608 29.568 137.568 29.568L200.141 29.568C201.12 29.568 201.888 30.3552 201.888 31.3152L201.888 37.7472C201.888 38.7072 201.101 39.4944 200.141 39.4944L200.141 39.4944Z" id="Shape" fill="#FFCF2D" fill-rule="evenodd" stroke="none" />
          <path d="M128.352 23.5394L202.579 23.5394L202.579 29.5682L128.352 29.5682L128.352 23.5394Z" id="Rectangle" fill="#FE5244" fill-rule="evenodd" stroke="none" />
          <path d="M201.235 23.5392L144.576 23.5392C143.827 23.5392 143.232 22.9248 143.232 22.1952L143.232 17.3376C143.232 16.5888 143.846 15.9936 144.576 15.9936L201.235 15.9936C201.984 15.9936 202.579 16.608 202.579 17.3376L202.579 22.1952C202.579 22.9248 201.984 23.5392 201.235 23.5392L201.235 23.5392Z" id="Shape" fill="#FFFFFF" fill-rule="evenodd" stroke="#9A3B82" stroke-width="6" stroke-linecap="round" />
          <path d="M23.5776 0L45.3696 0L45.3696 59.3088L23.5776 59.3088L23.5776 0Z" id="Rectangle" fill="none" fill-rule="evenodd" stroke="#9A3B82" stroke-width="6" stroke-linecap="round" />
          <path d="M14.7839 0L23.5775 0L23.5775 59.3088L14.7839 59.3088L14.7839 0Z" id="Rectangle" fill="#FFFFFF" fill-rule="evenodd" stroke="#9A3B82" stroke-width="6" stroke-linecap="round" />
          <path d="M0 0L14.784 0L14.784 59.3088L0 59.3088L0 0Z" id="Rectangle" fill="#FFFFFF" fill-rule="evenodd" stroke="#9A3B82" stroke-width="6" stroke-linecap="round" />
          <path d="M48.2498 10.7136L67.3538 10.7136L67.3538 59.328L48.2498 59.328L48.2498 10.7136Z" id="Rectangle" fill="none" fill-rule="evenodd" stroke="#9A3B82" stroke-width="6" stroke-linecap="round" />
          <path d="M49.6319 59.3088L42.1055 59.3088C41.3759 59.3088 40.7615 58.7136 40.7615 57.9648L40.7615 12.0192C40.7615 11.2896 41.3567 10.6752 42.1055 10.6752L49.6319 10.6752C50.3615 10.6752 50.9759 11.2704 50.9759 12.0192L50.9759 57.9648C50.9567 58.7136 50.3614 59.3088 49.6319 59.3088L49.6319 59.3088Z" id="Shape" fill="#FFFFFF" fill-rule="evenodd" stroke="#9A3B82" stroke-width="6" stroke-linecap="round" />
          <path d="M67.3534 10.7136L67.3534 37.3632L57.0046 10.7136L67.3534 10.7136Z" id="Polygon" fill="#9A3B82" fill-rule="evenodd" stroke="none" />
          <path d="M111.59 59.3087L81.0239 59.3087C80.3519 59.3087 79.7375 58.8863 79.5071 58.2719L59.6544 7.16152C59.232 6.08633 60.0191 4.93433 61.1711 4.93433L91.7375 4.93433C92.4095 4.93433 93.0239 5.35672 93.2543 5.97113L113.107 57.0815C113.529 58.1567 112.742 59.3087 111.59 59.3087L111.59 59.3087Z" id="Shape" fill="#FFFFFF" fill-rule="evenodd" stroke="#FFCF2D" stroke-width="6" />
          <path d="M116.582 59.3087L86.0159 59.3087C85.3439 59.3087 84.7295 58.8863 84.4991 58.2719L64.6464 7.16152C64.224 6.08633 65.0111 4.93433 66.1631 4.93433L96.7295 4.93433C97.4015 4.93433 98.0159 5.35672 98.2463 5.97113L118.099 57.0815C118.521 58.1567 117.734 59.3087 116.582 59.3087L116.582 59.3087Z" id="Shape" fill="#FFFFFF" fill-rule="evenodd" stroke="#FFCF2D" stroke-width="6" />
        </g>
        <g id="Group" transform="translate(128.60176 0)">
          <path d="M41.9136 63.2832C39.0528 64.0896 36.0192 64.5312 32.9088 64.5312C14.7264 64.5312 0 49.8048 0 31.6224C0 16.6272 10.0416 3.95521 23.7696 0L41.9136 63.2832L41.9136 63.2832Z" id="Shape" fill="none" fill-rule="evenodd" stroke="#FFCF2D" stroke-width="6" />
          <path d="M32.9089 64.5312L32.9089 76.2624" id="Line" fill="none" fill-rule="evenodd" stroke="#FFCF2D" stroke-width="6" />
          <path d="M5.03046 31.6224C5.03046 16.2256 17.512 3.744 32.9089 3.744C48.3057 3.744 60.7873 16.2256 60.7873 31.6224C60.7873 47.0192 48.3057 59.5008 32.9089 59.5008C17.512 59.5008 5.03046 47.0192 5.03046 31.6224Z" id="Circle" fill="#FFFFFF" fill-rule="evenodd" stroke="#3FB1B5" stroke-width="6" />
          <path d="M44.5631 76.1857L21.3503 76.1857L32.8703 70.4064L44.5631 76.1857Z" id="Polygon" fill="#FFFFFF" fill-rule="evenodd" stroke="#FFCF2D" stroke-width="6" />
        </g>
        <path d="M202.829 76.2624L202.829 416.544L192.326 416.544L192.326 391.776C192.326 386.266 187.853 381.792 182.342 381.792L20.3712 381.792C14.8608 381.792 10.3872 386.266 10.3872 391.776L10.3872 416.544L0 416.544L0 76.2624L202.829 76.2624L202.829 76.2624Z" id="Shape" fill="none" fill-rule="evenodd" stroke="#9A3B82" stroke-width="6" stroke-linecap="round" />
        <path d="M188.256 372.365L14.1889 372.365C11.9809 372.365 10.1761 370.579 10.1761 368.352L10.1761 318.259C10.1761 316.051 11.9617 314.246 14.1889 314.246L188.256 314.246C190.464 314.246 192.269 316.032 192.269 318.259L192.269 368.352C192.269 370.579 190.464 372.365 188.256 372.365L188.256 372.365Z" id="Shape" fill="none" fill-rule="evenodd" stroke="#3FB1B5" stroke-width="6" />
        <g id="Group" transform="translate(19.065678 22.252901)">
          <path d="M91.3344 7.27675L91.3344 54.0095L74.976 54.0095L91.3344 7.27675Z" id="Polygon" fill="#9A3B82" fill-rule="evenodd" stroke="none" />
          <path d="M91.3345 7.27678L91.2192 7.62239L75.072 54.0096L0 54.0096L16.1472 7.62239L16.6656 6.144L16.6656 6.144C19.0848 2.6688 25.7856 0.134391 33.7728 0C33.9072 0 34.0224 0 34.1568 0C34.2912 0 34.4064 0 34.5408 0C43.8721 0 52.1856 3.2448 53.7024 7.50719C55.2001 3.2448 63.1488 0 72.4801 0C81.6192 -2.34375e-05 89.6256 3.12956 91.3345 7.27678L91.3345 7.27678Z" id="Shape" fill="#FFFFFF" fill-rule="evenodd" stroke="#FFCF2D" stroke-width="6" />
          <path d="M53.6832 7.50723L37.3825 53.0496" id="Line" fill="none" fill-rule="evenodd" stroke="#FFCF2D" stroke-width="6" stroke-linecap="round" />
          <path d="M37.344 53.4335L0 53.4335C1.38239 49.1135 9.13922 45.7919 18.4704 45.7919C27.84 45.792 35.9616 49.1135 37.344 53.4335L37.344 53.4335Z" id="Shape" fill="#FFCF2D" fill-rule="evenodd" stroke="none" />
          <path d="M74.976 53.4335L37.632 53.4335C39.0144 49.1135 46.7712 45.7919 56.1024 45.7919C65.472 45.792 73.5936 49.1135 74.976 53.4335L74.976 53.4335Z" id="Shape" fill="#FFCF2D" fill-rule="evenodd" stroke="none" />
        </g>
        <path d="M88.7229 329.088C88.7229 327.59 89.9325 326.362 91.4492 326.362L111.82 326.362C113.318 326.362 114.547 327.571 114.547 329.088" id="Shape" fill="none" fill-rule="evenodd" stroke="#9A3B82" stroke-width="6" stroke-linecap="round" />
        <path d="M0 229.037L202.829 229.037" id="Line" fill="none" fill-rule="evenodd" stroke="#9A3B82" stroke-width="6" stroke-linecap="round" />
        <path d="M0 152.64L202.829 152.64" id="Line" fill="none" fill-rule="evenodd" stroke="#9A3B82" stroke-width="6" stroke-linecap="round" />
        <path d="M0 305.414L202.829 305.414" id="Line" fill="none" fill-rule="evenodd" stroke="#9A3B82" stroke-width="6" stroke-linecap="round" />
        <path d="M700636 73088.4L671024 99601L911660 99601L941272 73088.4" id="Polygon" fill="none" fill-rule="evenodd" stroke="#9A3B82" stroke-width="6" stroke-linecap="round" stroke-linejoin="round" />
      </g>
      <g id="PLANT" transform="translate(700.2153 430.61765)">
        <g id="Group" transform="translate(47.60559 121.420616)">
          <path d="M68.8128 38.4768C68.8128 42.3361 68.1024 46.0416 66.7968 49.4785C64.896 54.4705 60.0768 57.7345 54.72 57.7345L14.0736 57.7345C8.736 57.7345 3.89761 54.4705 2.016 49.4785C0.710391 46.0417 0 42.3361 0 38.4768C0 27.3408 5.89439 17.5105 14.8992 11.6352L14.8992 5.14563C14.8992 7.98724 23.6352 10.2912 34.3872 10.2912C45.1585 10.2912 53.8752 7.98724 53.8752 5.14563L53.8752 11.6544C62.9185 17.5104 68.8128 27.3408 68.8128 38.4768L68.8128 38.4768Z" id="Shape" fill="#FE5244" fill-rule="evenodd" stroke="none" />
          <g id="Group" transform="translate(14.937744 9.8688345)">
            <path d="M38.976 0L38.976 1.728C35.8848 4.18561 27.4752 5.49122 19.488 5.49122C11.5008 5.49122 3.09122 4.18561 0 1.728L0 0C0.364781 0.825609 1.92 1.90078 5.376 2.80322C9.13922 3.80161 14.1504 4.33922 19.488 4.33922C24.8256 4.33922 29.8368 3.80161 33.6 2.80322C37.056 1.88156 38.592 0.80639 38.976 0L38.976 0Z" id="Shape" fill="#FFFFFF" fill-rule="evenodd" stroke="none" />
          </g>
          <path d="M53.9138 5.14561C53.9138 7.98722 45.1778 10.2912 34.4258 10.2912C23.6737 10.2912 14.9377 7.98722 14.9377 5.14561C14.9377 4.78083 15.0721 4.43522 15.341 4.08961C17.1842 1.76639 25.0177 0 34.4258 0C43.8338 0 51.6673 1.74722 53.5105 4.08961C53.7601 4.43522 53.9138 4.78083 53.9138 5.14561L53.9138 5.14561Z" id="Shape" fill="#66B0F0" fill-rule="evenodd" stroke="none" />
          <g id="Group" transform="translate(4.608032 16.281645)">
            <path d="M1.26727 11.5775C1.26727 10.2202 2.36758 9.11993 3.72487 9.11993C5.08217 9.11993 6.18248 10.2202 6.18248 11.5775C6.18248 12.9348 5.08217 14.0351 3.72487 14.0351C2.36758 14.0351 1.26727 12.9348 1.26727 11.5775Z" id="Circle" fill="none" fill-rule="evenodd" stroke="#FFCF2D" stroke-width="6" />
            <path d="M9.59985 17.6255C9.59985 16.2682 10.7002 15.1679 12.0575 15.1679C13.4147 15.1679 14.5151 16.2682 14.5151 17.6255C14.5151 18.9828 13.4147 20.0831 12.0575 20.0831C10.7002 20.0831 9.59985 18.9828 9.59985 17.6255Z" id="Circle" fill="none" fill-rule="evenodd" stroke="#FFCF2D" stroke-width="6" />
            <path d="M19.9682 10.4448C19.9682 9.08746 21.0685 7.98715 22.4258 7.98715C23.7831 7.98715 24.8834 9.08746 24.8834 10.4448C24.8834 11.802 23.7831 12.9024 22.4258 12.9024C21.0685 12.9024 19.9682 11.802 19.9682 10.4448Z" id="Circle" fill="none" fill-rule="evenodd" stroke="#FFCF2D" stroke-width="6" />
            <path d="M18.5089 26.7648C18.5089 25.4075 19.6092 24.3072 20.9665 24.3072C22.3237 24.3072 23.4241 25.4075 23.4241 26.7648C23.4241 28.1221 22.3237 29.2224 20.9665 29.2224C19.6092 29.2224 18.5089 28.1221 18.5089 26.7648Z" id="Circle" fill="none" fill-rule="evenodd" stroke="#FFCF2D" stroke-width="6" />
            <path d="M9.29279 33.9264C9.29279 32.5691 10.3931 31.4688 11.7504 31.4688C13.1077 31.4688 14.208 32.5691 14.208 33.9264C14.208 35.2837 13.1077 36.384 11.7504 36.384C10.3931 36.384 9.29279 35.2837 9.29279 33.9264Z" id="Circle" fill="none" fill-rule="evenodd" stroke="#FFCF2D" stroke-width="6" />
            <path d="M0 26.7648C0 25.4075 1.10031 24.3072 2.4576 24.3072C3.8149 24.3072 4.9152 25.4075 4.9152 26.7648C4.9152 28.1221 3.8149 29.2224 2.4576 29.2224C1.10031 29.2224 0 28.1221 0 26.7648Z" id="Circle" fill="none" fill-rule="evenodd" stroke="#FFCF2D" stroke-width="6" />
            <path d="M10.9442 2.4576C10.9442 1.1003 12.0445 0 13.4018 0C14.7591 0 15.8594 1.1003 15.8594 2.4576C15.8594 3.81489 14.7591 4.9152 13.4018 4.9152C12.0445 4.9152 10.9442 3.81489 10.9442 2.4576Z" id="Circle" fill="none" fill-rule="evenodd" stroke="#FFCF2D" stroke-width="6" />
            <path d="M30.5089 4.32006C30.5089 2.96276 31.6092 1.86246 32.9665 1.86246C34.3237 1.86246 35.4241 2.96276 35.4241 4.32006C35.4241 5.67735 34.3237 6.77766 32.9665 6.77766C31.6092 6.77766 30.5089 5.67735 30.5089 4.32006Z" id="Circle" fill="none" fill-rule="evenodd" stroke="#FFCF2D" stroke-width="6" />
            <path d="M28.4544 19.2192C28.4544 17.8619 29.5547 16.7616 30.912 16.7616C32.2693 16.7616 33.3696 17.8619 33.3696 19.2192C33.3696 20.5765 32.2693 21.6768 30.912 21.6768C29.5547 21.6768 28.4544 20.5765 28.4544 19.2192Z" id="Circle" fill="none" fill-rule="evenodd" stroke="#FFCF2D" stroke-width="6" />
            <path d="M35.5583 29.0113C35.5583 27.654 36.6587 26.5537 38.0159 26.5537C39.3732 26.5537 40.4735 27.654 40.4735 29.0113C40.4735 30.3686 39.3732 31.4689 38.0159 31.4689C36.6587 31.4689 35.5583 30.3686 35.5583 29.0113Z" id="Circle" fill="none" fill-rule="evenodd" stroke="#FFCF2D" stroke-width="6" />
            <path d="M26.3423 36.3841C26.3423 35.0268 27.4426 33.9265 28.7999 33.9265C30.1572 33.9265 31.2575 35.0268 31.2575 36.3841C31.2575 37.7414 30.1572 38.8417 28.7999 38.8417C27.4426 38.8417 26.3423 37.7414 26.3423 36.3841Z" id="Circle" fill="none" fill-rule="evenodd" stroke="#FFCF2D" stroke-width="6" />
            <path d="M38.1888 13.344C38.1888 11.9867 39.2892 10.8864 40.6464 10.8864C42.0037 10.8864 43.104 11.9867 43.104 13.344C43.104 14.7013 42.0037 15.8016 40.6464 15.8016C39.2892 15.8016 38.1888 14.7013 38.1888 13.344Z" id="Circle" fill="none" fill-rule="evenodd" stroke="#FFCF2D" stroke-width="6" />
            <path d="M45.312 3.264C45.312 1.9067 46.4123 0.806396 47.7696 0.806396C49.1269 0.806396 50.2272 1.9067 50.2272 3.264C50.2272 4.62129 49.1269 5.7216 47.7696 5.7216C46.4123 5.7216 45.312 4.62129 45.312 3.264Z" id="Circle" fill="none" fill-rule="evenodd" stroke="#FFCF2D" stroke-width="6" />
            <path d="M53.4142 11.4241C53.4142 10.0668 54.5146 8.96649 55.8718 8.96649C57.2291 8.96649 58.3294 10.0668 58.3294 11.4241C58.3294 12.7814 57.2291 13.8817 55.8718 13.8817C54.5146 13.8817 53.4142 12.7814 53.4142 11.4241Z" id="Circle" fill="none" fill-rule="evenodd" stroke="#FFCF2D" stroke-width="6" />
            <path d="M44.1409 19.4687C44.1409 18.1114 45.2412 17.0111 46.5985 17.0111C47.9558 17.0111 49.0561 18.1114 49.0561 19.4687C49.0561 20.826 47.9558 21.9263 46.5985 21.9263C45.2412 21.9263 44.1409 20.826 44.1409 19.4687Z" id="Circle" fill="none" fill-rule="evenodd" stroke="#FFCF2D" stroke-width="6" />
            <path d="M55.2387 24.6144C55.2387 23.2571 56.339 22.1568 57.6963 22.1568C59.0536 22.1568 60.1539 23.2571 60.1539 24.6144C60.1539 25.9717 59.0536 27.072 57.6963 27.072C56.339 27.072 55.2387 25.9717 55.2387 24.6144Z" id="Circle" fill="none" fill-rule="evenodd" stroke="#FFCF2D" stroke-width="6" />
            <path d="M47.7697 34.0609C47.7697 32.7036 48.87 31.6033 50.2273 31.6033C51.5845 31.6033 52.6849 32.7036 52.6849 34.0609C52.6849 35.4182 51.5845 36.5185 50.2273 36.5185C48.87 36.5185 47.7697 35.4182 47.7697 34.0609Z" id="Circle" fill="none" fill-rule="evenodd" stroke="#FFCF2D" stroke-width="6" />
          </g>
        </g>
        <g id="Group">
          <path d="M125.077 96.6527C125.077 96.6527 143.317 86.8031 146.332 104.006C149.826 123.878 126.095 141.37 126.095 141.37C126.095 141.37 120.988 128.717 107.298 117.811C95.4518 108.384 105.282 83.3856 125.077 96.6527L125.077 96.6527Z" id="Shape" fill="#FFFFFF" fill-rule="evenodd" stroke="#FFCF2D" stroke-width="6" />
          <path d="M89.2695 74.7455C97.9287 74.8223 110.37 57.2351 98.6199 37.9392C84.4311 14.6304 81.9927 1.13278 81.9927 1.13278C81.9927 1.13278 61.1223 28.7424 64.6743 49.92C68.5719 73.1135 89.2695 74.7455 89.2695 74.7455L89.2695 74.7455Z" id="Shape" fill="#FFCF2D" fill-rule="evenodd" stroke="none" />
          <path d="M90.7672 63.0336C103.42 66.3744 115.439 58.6752 115.689 41.1264C116.13 10.0992 122.006 0 122.006 0C122.006 0 82.588 14.1888 76.6168 36.2304C70.9336 57.2352 90.7672 63.0336 90.7672 63.0336L90.7672 63.0336Z" id="Shape" fill="#FFFFFF" fill-rule="evenodd" stroke="#FFCF2D" stroke-width="6" />
          <path d="M37.8903 83.4624C37.4295 83.5008 36.9495 83.5392 36.4311 83.5776C9.20546 85.6129 1.37184 110.534 1.37184 110.534C1.37184 110.534 -0.298547 108.73 0.0470625 102.49C0.699844 86.4 15.5031 69.7729 32.3991 80.3329C34.2807 81.5232 36.1239 82.5408 37.8903 83.4624L37.8903 83.4624Z" id="Shape" fill="#FFCF2D" fill-rule="evenodd" stroke="none" />
          <path d="M68.7638 89.5871C63.9638 89.8943 53.0005 91.2191 37.8901 83.4624C36.1237 82.56 34.2805 81.5231 32.3989 80.3327C15.5029 69.7728 1.08368 86.4 0.430894 102.49C0.392504 103.277 0.584504 104.064 0.622894 104.832C-0.970716 90.8543 -0.932325 56.0639 41.3653 57.2351C70.4342 58.08 68.7638 89.5871 68.7638 89.5871L68.7638 89.5871Z" id="Shape" fill="#FFFFFF" fill-rule="evenodd" stroke="#FFCF2D" stroke-width="6" />
          <path d="M75.6759 125.549C75.6759 125.549 80.6871 55.7184 12.9686 64.8384" id="Shape" fill="none" fill-rule="evenodd" stroke="#FFCF2D" stroke-width="6" />
          <path d="M122.005 0C79.3429 43.584 87.2918 125.549 87.2918 125.549C82.799 94.1952 110.37 63.0336 125.058 95.8272C129.436 105.581 126.076 141.35 126.076 141.35" id="Shape" fill="none" fill-rule="evenodd" stroke="#FFCF2D" stroke-width="6" />
        </g>
      </g>
      <g id="CHAIR__x26__TABLE" transform="translate(145.72247 427.23843)">
        <g id="CHAIR" transform="translate(0 2.8032527)">
          <path d="M44.3575 71.2319L38.6359 76.2432C37.7143 75.1488 36.8887 73.9392 36.1783 72.6144L0.504715 6.144C-0.992883 3.36 1.02312 0 4.17191 0L9.16391 0C13.1575 0 16.8055 2.18878 18.6871 5.70239L46.7383 57.9648C49.1575 62.4191 48.1591 67.9296 44.3575 71.2319L44.3575 71.2319Z" id="Shape" fill="#FFCF2D" fill-rule="evenodd" stroke="none" />
          <path d="M141.471 72.691L141.471 72.691L58.4694 89.7407L58.4694 88.0126C58.4694 79.7374 64.287 72.6143 72.3894 70.9439L125.861 59.9615C133.925 58.3103 141.471 64.4735 141.471 72.691L141.471 72.691Z" id="Shape" fill="#FFCF2D" fill-rule="evenodd" stroke="none" />
          <path d="M132.063 178.79L132.063 95.635C132.063 88.7422 125.746 83.5966 118.988 84.979L66.8599 95.6734C60.6583 96.9406 55.5511 101.28 53.2855 107.193L25.7719 178.79" id="Shape" fill="none" fill-rule="evenodd" stroke="#9A3B82" stroke-width="6" stroke-linecap="round" />
          <path d="M0.293335 5.77908L40.8245 81.2927C44.2997 87.7631 51.5957 91.1807 58.7957 89.7023L141.663 72.6911" id="Shape" fill="none" fill-rule="evenodd" stroke="#9A3B82" stroke-width="6" stroke-linecap="round" />
        </g>
        <g id="BOOKS" transform="translate(90.85987 0)">
          <path d="M9.90729 13.8239L80.0449 13.8239L80.0449 23.1935L9.90729 23.1935L9.90729 13.8239Z" id="Rectangle" fill="#66B0F0" fill-rule="evenodd" stroke="none" />
          <g id="Group">
            <path d="M67.2576 3.64805C68.1024 4.43527 68.6208 5.85605 68.6208 7.04644C68.6208 9.42722 66.5472 11.8657 63.9744 11.8657L0 11.8657L0 11.8657C0 12.9793 0.902391 13.8817 2.016 13.8817L79.2192 13.8817C81.2928 13.8817 83.1552 13.1137 84.5184 11.8464C85.8816 10.5984 86.7072 8.85122 86.7072 6.93122C86.7072 3.09122 83.3472 0 79.2192 0L2.016 0C0.902391 0 0 0.902391 0 2.016L0 2.38078L63.9744 2.38078C65.2608 2.40005 66.4128 2.88005 67.2576 3.64805L67.2576 3.64805Z" id="Shape" fill="#FE5244" fill-rule="evenodd" stroke="none" />
            <path d="M4.62723 2.40011L4.62723 11.6929L0.0192261 11.6929L0.0192261 12.4609L64.2048 12.4609C64.9152 12.4609 65.6065 12.3265 66.2208 12.0769C66.2208 12.0769 66.2208 12.0769 66.2208 12.0769C66.912 11.8081 67.5265 11.3857 68.0257 10.8865C69.0049 9.90728 69.6193 8.54411 69.6193 7.0465C69.6193 4.05128 67.1809 1.63211 64.2049 1.63211L0.019273 1.63211L0.019273 2.40011L4.62723 2.40011L4.62723 2.40011Z" id="Shape" fill="#FE5244" fill-rule="evenodd" stroke="none" />
            <path d="M2.8418 2.40001L2.8418 11.6928L63.9746 11.6928C66.5474 11.6928 68.621 9.61918 68.621 7.0464C68.621 5.76001 68.1026 4.60801 67.2578 3.76318C66.413 2.9184 65.261 2.39996 63.9746 2.39996L2.8418 2.39996L2.8418 2.40001Z" id="Shape" fill="#FFFFFF" fill-rule="evenodd" stroke="none" />
            <path d="M2.84154 2.39996L2.84154 11.6928" id="Line" fill="none" fill-rule="evenodd" stroke="#FE5244" stroke-width="5" />
            <path d="M55.4302 8.98568L55.4302 16.7425L60.787 16.7425L60.787 9.98407C60.787 8.37129 62.0927 7.06568 63.7054 7.06568L66.0862 7.06568L66.0862 6.06729L58.3294 6.06729C56.7551 6.06729 55.4302 7.3729 55.4302 8.98568L55.4302 8.98568Z" id="Shape" fill="#FFCF2D" fill-rule="evenodd" stroke="none" />
          </g>
        </g>
        <g id="TABLE" transform="translate(61.272953 23.808102)">
          <path d="M0.115173 7.41122C0.115173 3.32161 3.43678 0 7.52637 0L153.254 0C157.344 0 160.666 3.32161 160.666 7.41122" id="Shape" fill="none" fill-rule="evenodd" stroke="#9A3B82" stroke-width="6" stroke-linecap="round" />
          <path d="M160.781 157.786L119.635 14.4768C117.811 8.14082 111.533 3.72482 104.352 3.72482L56.4096 3.72482C49.2288 3.72482 42.9504 8.14082 41.1264 14.4768L0 157.786" id="Shape" fill="none" fill-rule="evenodd" stroke="#9A3B82" stroke-width="6" stroke-linecap="round" />
        </g>
      </g>
      <g id="CHARACTER" transform="translate(381.6577 223.46475)">
        <g id="SHOES" transform="translate(20.659056 360.56082)">
          <g id="Group">
            <path d="M0 4.68749e-05L0 20.8896C0 23.0592 1.74722 24.8064 3.91678 24.8064L56.1408 24.8064C56.1408 24.8064 56.448 15.1104 48.4992 12.4032C35.0016 7.81441 28.704 0 28.704 0L0 0L0 4.68749e-05Z" id="Shape" fill="#FFFFFF" fill-rule="evenodd" stroke="#FE5244" stroke-width="6" />
            <path d="M29.0495 10.6943C31.1807 10.0991 38.8607 5.85592 36.2303 3.22554C34.9823 1.97754 31.9871 3.22554 31.9871 3.22554" id="Shape" fill="none" fill-rule="evenodd" stroke="#FE5244" stroke-width="6" />
            <path d="M36.9219 13.5743C39.0531 12.979 46.4259 8.23667 43.5267 5.9135C41.3379 4.14712 38.0547 7.56472 38.0547 7.56472" id="Shape" fill="none" fill-rule="evenodd" stroke="#FE5244" stroke-width="6" />
            <path d="M30.3168 1.68965L0 11.1168L0 9.15527e-05L28.7232 9.15527e-05C28.7232 4.46778e-05 29.2416 0.652824 30.3168 1.68965L30.3168 1.68965Z" id="Shape" fill="#FE5244" fill-rule="evenodd" stroke="none" />
          </g>
          <g id="Group" transform="translate(65.47192 0)">
            <path d="M0 4.68749e-05L0 20.8896C0 23.0592 1.74722 24.8064 3.91678 24.8064L56.1408 24.8064C56.1408 24.8064 56.448 15.1104 48.4992 12.4032C35.0016 7.81441 28.7039 0 28.7039 0L0 0L0 4.68749e-05Z" id="Shape" fill="#FFFFFF" fill-rule="evenodd" stroke="#FE5244" stroke-width="6" />
            <path d="M29.0495 10.6943C31.1807 10.0991 38.8607 5.85592 36.2303 3.22554C34.9823 1.97754 31.9871 3.22554 31.9871 3.22554" id="Shape" fill="none" fill-rule="evenodd" stroke="#FE5244" stroke-width="6" />
            <path d="M36.9217 13.5743C39.053 12.979 46.4257 8.23667 43.5265 5.9135C41.3377 4.14712 38.0545 7.56472 38.0545 7.56472" id="Shape" fill="none" fill-rule="evenodd" stroke="#FE5244" stroke-width="6" />
            <path d="M30.3168 1.68965L0 11.1168L0 9.15527e-05L28.7232 9.15527e-05C28.7232 4.46778e-05 29.2416 0.652824 30.3168 1.68965L30.3168 1.68965Z" id="Shape" fill="#FE5244" fill-rule="evenodd" stroke="none" />
          </g>
        </g>
        <g id="LEGS" transform="translate(11.884826 152.62471)">
          <path d="M22.8863 0L3.9743 197.99L43.5263 197.99L63.3983 102.048L71.5199 122.496L71.5199 197.99L112.704 197.99L112.704 113.338L90.7391 0L22.8863 0Z" id="Polygon" fill="#3FB1B5" fill-rule="evenodd" stroke="none" />
          <path d="M43.4878 47.5583L25.0942 197.99" id="Line" fill="none" fill-rule="evenodd" stroke="#9A3B82" stroke-width="6" />
          <path d="M64781.6 562911L64781.6 479850L61313.4 378062" id="Polygon" fill="none" fill-rule="evenodd" stroke="#9A3B82" stroke-width="6" />
          <path d="M70.9439 122.496L46.2911 50.8993C45.4463 48.4417 43.1231 46.7905 40.5119 46.7905" id="Shape" fill="none" fill-rule="evenodd" stroke="#FFFFFF" stroke-width="6" />
          <path d="M19.7567 32.736L22.8863 0L90.7391 0L92.6783 10.0608L19.7567 32.736Z" id="Polygon" fill="#9A3B82" fill-rule="evenodd" stroke="none" />
          <path d="M112.781 207.936L71.3663 207.936C69.8111 207.936 68.5439 206.669 68.5439 205.114L68.5439 200.813C68.5439 199.258 69.8111 197.99 71.3663 197.99L112.781 197.99C114.336 197.99 115.603 199.258 115.603 200.813L115.603 205.114C115.584 206.669 114.336 207.936 112.781 207.936L112.781 207.936Z" id="Shape" fill="#9A3B82" fill-rule="evenodd" stroke="none" />
          <path d="M44.2368 207.936L2.82239 207.936C1.26717 207.936 0 206.669 0 205.114L0 200.813C0 199.258 1.26722 197.99 2.82239 197.99L44.2368 197.99C45.792 197.99 47.0592 199.258 47.0592 200.813L47.0592 205.114C47.0399 206.669 45.792 207.936 44.2368 207.936L44.2368 207.936Z" id="Shape" fill="#9A3B82" fill-rule="evenodd" stroke="none" />
        </g>
        <g id="BOOK" transform="translate(89.33294 152.9553)">
          <path d="M77.3229 5.46789L90.3022 54.0246L25.5982 71.3238L12.5998 22.7287C12.1965 21.2119 11.2174 20.0214 9.96938 19.2919C8.72138 18.5623 7.18537 18.3127 5.66859 18.7159C2.6542 19.5223 0.849375 22.6327 1.65581 25.6471L14.6542 74.2423L13.2334 74.6263L0.254203 26.0695C-0.782578 22.2103 1.44459 18.2551 5.2462 17.1031C5.32298 17.0839 5.39981 17.0648 5.47659 17.0455L68.299 0.245554C72.2349 -0.791296 76.2669 1.55109 77.3229 5.46789L77.3229 5.46789Z" id="Shape" fill="#66B0F0" fill-rule="evenodd" stroke="none" />
          <path d="M14.0397 22.4023L27.0189 70.959L25.5982 71.343L12.5998 22.7479C12.1965 21.2311 11.2174 20.0406 9.96937 19.3111C8.72137 18.5815 7.18537 18.3319 5.66859 18.7351C2.6542 19.5415 0.849375 22.6519 1.65581 25.6663L14.6542 74.2615L13.2334 74.6455L0.254203 26.0887C-0.782578 22.2295 1.44459 18.2743 5.2462 17.1223C9.10533 16.2199 13.0029 18.5431 14.0397 22.4023L14.0397 22.4023Z" id="Shape" fill="#9A3B82" fill-rule="evenodd" stroke="none" />
          <path d="M12.5995 22.7287L24.7915 68.3479L13.8475 71.2663L1.65546 25.6471C0.84907 22.6327 2.63468 19.5224 5.66824 18.7159C7.18502 18.3127 8.72102 18.5623 9.96902 19.2919C11.2171 20.0216 12.1963 21.212 12.5995 22.7287L12.5995 22.7287Z" id="Shape" fill="#FFFFFF" fill-rule="evenodd" stroke="none" />
        </g>
        <g id="SHIRT" transform="translate(0 54.37843)">
          <path d="M166.848 129.773L137.414 139.91L114.182 98.2464L24.1342 98.2464C8.83181 98.2464 -2.61141 84.1728 0.518203 69.1968L9.88781 24.192C12.8254 10.0992 25.2478 0 39.6286 0L101.203 0C116.121 0 128.832 10.8288 131.193 25.5552L140.467 69.3696L166.848 129.773L166.848 129.773Z" id="Shape" fill="#FFCF2D" fill-rule="evenodd" stroke="#FFFFFF" stroke-width="6" />
          <path d="M19.3343 97.7665C8.73591 95.6353 0.863909 86.6113 0.0574951 75.9745C0.863886 75.4177 1.7663 74.9377 2.7263 74.5921C9.69591 72.0193 17.6639 76.2433 20.5631 84.0193C22.3487 88.8961 21.7343 94.0033 19.3343 97.7665L19.3343 97.7665Z" id="Shape" fill="#FFFFFF" fill-rule="evenodd" stroke="none" />
        </g>
        <g id="HEAD" transform="translate(56.562923 0)">
          <path d="M29.8176 27.3832L29.8176 54.3976L0 54.3976L6.87361 36.4264L29.8176 27.3832Z" id="NECK" fill="#E57281" fill-rule="evenodd" stroke="none" />
          <path d="M36.672 16.0169C36.6528 16.0169 36.6144 16.0361 36.5952 16.0361L36.5952 16.0361L36.5952 16.0361L27.744 18.3785C24.576 19.2233 22.1376 21.5657 21.1008 24.5225L17.7024 24.5225C15.552 24.5225 13.8048 26.2697 13.8048 28.4201L13.8048 28.4777C13.8048 30.5129 15.36 32.1833 17.3568 32.3561C17.3376 32.3753 17.3376 32.3753 17.3376 32.3753C17.3376 32.3753 15.7632 39.8633 6.56634 37.3481C6.56634 37.3481 6.93113 17.6489 7.31513 11.5241C7.64152 6.47447 34.4255 -3.08712 36.9023 0.983273C39.0911 4.59288 36.5567 6.28247 34.4063 7.03127C38.2079 6.22488 45.3887 5.14966 46.1183 8.35607C46.9632 12.0809 39.3792 15.3065 36.672 16.0169L36.672 16.0169Z" id="HAIR" fill="#9A3B82" fill-rule="evenodd" stroke="none" />
          <g id="HEAD_1_" transform="translate(13.823913 16.055235)">
            <path d="M24.576 13.7664L23.6352 13.7664L23.904 18.3744C24.096 21.6768 21.4464 24.48 18.144 24.48L13.9968 24.48C10.0032 24.48 6.75839 21.2352 6.75839 17.2416L6.75839 16.3392L3.89761 16.3392C1.74722 16.3392 0 14.592 0 12.4416L0 12.384C0 10.2336 1.74722 8.48639 3.89761 8.48639L7.296 8.48639C8.33278 5.52958 10.7712 3.168 13.9392 2.34239L22.7904 0L22.7904 0L25.824 12.1536C26.1312 12.9216 25.4016 13.7664 24.576 13.7664L24.576 13.7664Z" id="Shape" fill="#E57281" fill-rule="evenodd" stroke="none" />
            <g id="Group" transform="translate(3.3982542 3.9552147)">
              <path d="M4.26254 13.6512C3.85933 17.8751 8.08332 20.8895 12.0769 20.8895" id="Shape" fill="none" fill-rule="evenodd" stroke="#9A3B82" stroke-width="5" stroke-linecap="round" />
              <path d="M2.70722 9.13923C2.70722 7.64162 1.49761 6.43204 0 6.43204" id="Shape" fill="none" fill-rule="evenodd" stroke="#9A3B82" stroke-width="5" stroke-linecap="round" />
              <path d="M17.2031 4.9152C17.2031 4.0987 17.5212 3.4368 17.9135 3.4368C18.3059 3.4368 18.6239 4.0987 18.6239 4.9152C18.6239 5.7317 18.3059 6.3936 17.9135 6.3936C17.5212 6.3936 17.2031 5.7317 17.2031 4.9152Z" id="Oval" fill="#9A3B82" fill-rule="evenodd" stroke="none" />
              <path d="M14.8416 1.8048C14.8416 1.8048 17.2032 0 20.5824 0" id="Shape" fill="none" fill-rule="evenodd" stroke="#9A3B82" stroke-width="5" stroke-linecap="round" />
            </g>
          </g>
        </g>
        <g id="BACKPACK" transform="translate(25.05615 49.424923)">
          <path d="M54.4318 115.507C54.4318 115.507 77.9518 116.525 86.227 97.6512L81.8494 89.6448L68.7742 94.6751L54.4318 115.507L54.4318 115.507Z" id="Shape" fill="#FFFFFF" fill-rule="evenodd" stroke="#FE5244" stroke-width="6" />
          <path d="M73.2668 0.0192261C72.1341 0.115226 71.0972 0.614421 70.3292 1.38242C69.4845 2.22723 68.9468 3.39842 68.9468 4.70403L68.9468 99.3024C68.9468 108.326 61.6316 115.642 52.6076 115.642L16.3388 115.642C6.58523 115.642 -0.941156 107.174 0.095625 97.5552L0.095625 97.536L13.1516 7.73764C13.8044 3.30244 17.5868 0.0192495 22.0796 0.0192495L73.2668 0.0192495L73.2668 0.0192261Z" id="Shape" fill="#FE5244" fill-rule="evenodd" stroke="#FE5244" stroke-width="6" />
          <path d="M69.6188 0.0191953C68.4861 0.115195 67.4492 0.61439 66.6812 1.38239C65.9708 2.09278 65.4908 3.01439 65.3565 4.05119C65.3372 4.26239 65.3181 4.47358 65.3181 4.6848L64.5501 11.9232L55.3341 99.2832C55.3341 108.307 48.0188 115.622 38.9948 115.622L16.3581 115.622C6.60446 115.622 -0.92193 107.155 0.114851 97.536L0.114851 97.5168L6.00924 56.928L13.1708 7.71839C13.2285 7.296 13.3245 6.87358 13.4396 6.45119C14.5532 2.6688 18.0476 0 22.0796 0L69.6188 0L69.6188 0.0191953Z" id="Shape" fill="#FFFFFF" fill-rule="evenodd" stroke="#FE5244" stroke-width="6" />
          <path d="M61.5356 18.8545L58.0988 44.6401C56.9661 49.9201 52.8572 52.7425 46.9052 53.7025L6.20123 59.6161L12.134 18.8353L61.5356 18.8353L61.5356 18.8545Z" id="Shape" fill="#FFCF2D" fill-rule="evenodd" stroke="none" />
          <path d="M68.1596 0.0192081L67.142 0.0192081C65.2987 1.28206e-05 63.686 1.3056 63.3212 3.1296L57.3308 41.7792C56.198 47.0592 51.5324 50.8416 46.1372 50.8416L8.67795 50.8416C4.14673 50.8416 0.76756 46.656 1.74673 42.2208L8.96595 9.42718C10.1756 3.93599 15.0523 0.0191847 20.678 0.0191847L68.1596 0.0191847L68.1596 0.0192081Z" id="Shape" fill="#FE5244" fill-rule="evenodd" stroke="#FE5244" stroke-width="6" />
          <path d="M37.286 61.5935L46.8284 3.24471C47.0204 2.07352 48.038 1.19032 49.2284 1.19032L49.2284 1.19032C50.726 1.19032 51.878 2.53432 51.6284 4.03193L42.086 62.3807C41.894 63.5519 40.8764 64.4351 39.686 64.4351L39.686 64.4351C38.1884 64.4351 37.0364 63.0911 37.286 61.5935L37.286 61.5935Z" id="Shape" fill="#FFFFFF" fill-rule="evenodd" stroke="#FE5244" stroke-width="6" />
          <path d="M15.9548 61.5935L25.4972 3.24471C25.6892 2.07352 26.7068 1.19032 27.8972 1.19032L27.8972 1.19032C29.3948 1.19032 30.5468 2.53432 30.2972 4.03193L20.7548 62.3807C20.5628 63.5519 19.5452 64.4351 18.3548 64.4351L18.3548 64.4351C16.8572 64.4351 15.7052 63.0911 15.9548 61.5935L15.9548 61.5935Z" id="Shape" fill="#FFFFFF" fill-rule="evenodd" stroke="#FE5244" stroke-width="6" />
          <path d="M78.3549 4.99203L68.9661 5.03042L68.9661 4.70403C68.9661 3.39842 69.4845 2.22723 70.3485 1.38242C71.1165 0.614421 72.1341 0.115226 73.2861 0.0192261L74.0541 0.0192261C76.4157 0.211226 78.2781 2.20803 78.3549 4.99203L78.3549 4.99203Z" id="Shape" fill="#FFFFFF" fill-rule="evenodd" stroke="#FE5244" stroke-width="6" />
        </g>
        <g id="HAND" transform="translate(96.38378 100.26635)">
          <g id="Group" transform="translate(42.98895 85.09441)">
            <path d="M23.9615 0L31.8719 20.4096C33.1391 23.6928 31.2959 27.3408 27.9166 28.2816L10.5406 33.0432C9.48463 33.3312 8.37102 33.0816 7.54541 32.3712L5.77902 30.8352L9.38863 29.8752C10.9822 29.4528 12.0574 27.9744 11.9806 26.3232L11.5774 22.2528C11.5006 20.4288 10.0222 18.9696 8.19819 18.912L8.39019 18.912C6.18219 18.8353 4.0318 17.472 3.1678 15.4368L0.403015 8.08322L23.9615 0L23.9615 0Z" id="Shape" fill="#E57281" fill-rule="evenodd" stroke="none" />
            <path d="M6.144 31.2384L8.98561 30.4704C10.5792 30.048 11.6544 28.7616 11.5776 27.1104L11.3664 22.656C11.2896 20.832 9.81118 19.3727 7.98718 19.3152L7.98718 19.3152C5.77918 19.2384 3.82078 17.8752 2.95678 15.84L0 8.87036" id="Shape" fill="none" fill-rule="evenodd" stroke="#FFFFFF" stroke-width="6" stroke-linecap="round" />
            <path d="M15.4371 31.2001C17.4723 30.6624 18.8547 28.7808 18.7587 26.6688L18.4899 20.9856" id="Shape" fill="none" fill-rule="evenodd" stroke="#FFFFFF" stroke-width="6" stroke-linecap="round" />
            <path d="M22.7902 29.2992C24.8254 28.7616 26.2078 26.88 26.1118 24.768L25.8431 19.0848" id="Shape" fill="none" fill-rule="evenodd" stroke="#FFFFFF" stroke-width="6" stroke-linecap="round" />
          </g>
          <path d="M0 0L4.64639 24.3072C5.43361 28.4544 6.89278 32.4672 8.94717 36.1536L41.0112 94.0223L70.4448 83.8847" id="Shape" fill="none" fill-rule="evenodd" stroke="#FFFFFF" stroke-width="6" />
          <path d="M19.4496 55.1232L8.94723 36.1536C7.18084 32.9472 5.85601 29.5296 5.01123 25.9776C6.00962 25.6512 7.04645 25.4208 8.14084 25.3248C16.4352 24.5952 23.7888 31.5648 24.5761 40.8768C25.0368 46.5216 22.9824 51.7248 19.4496 55.1232L19.4496 55.1232Z" id="Shape" fill="#FFFFFF" fill-rule="evenodd" stroke="none" />
        </g>
      </g>
    </g>
  </g>
</svg>